<svg xmlns="http://www.w3.org/2000/svg" width="170.243" height="170.292" viewBox="0 0 170.243 170.292">
  <g id="WeProfit_Icon_design-07" transform="translate(0.5 0.5)">
    <g id="Group_9560" data-name="Group 9560" transform="translate(25.651 62.259)">
      <path id="Path_13940" data-name="Path 13940" d="M185.476,202.894V104.522a1.326,1.326,0,0,0-1.322-1.322H49.222a1.326,1.326,0,0,0-1.322,1.322v98.372a1.326,1.326,0,0,0,1.322,1.322H184.154A1.326,1.326,0,0,0,185.476,202.894Z" transform="translate(-41.884 -97.184)" stroke="#000" stroke-miterlimit="10" stroke-width="1"/>
      <path id="Path_13941" data-name="Path 13941" d="M176.376,193.794V95.422a1.326,1.326,0,0,0-1.322-1.322H40.122A1.326,1.326,0,0,0,38.8,95.422v98.372a1.326,1.326,0,0,0,1.322,1.322H175.054A1.326,1.326,0,0,0,176.376,193.794Z" transform="translate(-38.8 -94.1)" fill="#fff" stroke="#000" stroke-linecap="round" stroke-linejoin="round" stroke-miterlimit="10" stroke-width="1"/>
    </g>
    <g id="Group_9562" data-name="Group 9562" transform="translate(0 91.999)">
      <g id="Group_9561" data-name="Group 9561">
        <path id="Path_13942" data-name="Path 13942" d="M63,200.181,2.248,139.492A1.3,1.3,0,0,0,0,140.417v60.755a1.326,1.326,0,0,0,1.322,1.322H62.078A1.37,1.37,0,0,0,63,200.181ZM9.917,192.512v-31.4l31.4,31.4Z" transform="translate(0 -139.085)" fill="#fff" stroke="#000" stroke-linecap="round" stroke-linejoin="round" stroke-miterlimit="10" stroke-width="1"/>
        <line id="Line_483" data-name="Line 483" x2="4.892" transform="translate(0 22.091)" fill="none" stroke="#000" stroke-linecap="round" stroke-linejoin="round" stroke-miterlimit="10" stroke-width="1"/>
        <line id="Line_484" data-name="Line 484" x2="4.892" transform="translate(0 53.427)" fill="none" stroke="#000" stroke-linecap="round" stroke-linejoin="round" stroke-miterlimit="10" stroke-width="1"/>
        <line id="Line_485" data-name="Line 485" x2="4.892" transform="translate(0 47.147)" fill="none" stroke="#000" stroke-linecap="round" stroke-linejoin="round" stroke-miterlimit="10" stroke-width="1"/>
        <line id="Line_486" data-name="Line 486" x2="4.892" transform="translate(0 40.866)" fill="none" stroke="#000" stroke-linecap="round" stroke-linejoin="round" stroke-miterlimit="10" stroke-width="1"/>
        <line id="Line_487" data-name="Line 487" x2="4.892" transform="translate(0 34.586)" fill="none" stroke="#000" stroke-linecap="round" stroke-linejoin="round" stroke-miterlimit="10" stroke-width="1"/>
        <line id="Line_488" data-name="Line 488" x2="4.892" transform="translate(0 28.371)" fill="none" stroke="#000" stroke-linecap="round" stroke-linejoin="round" stroke-miterlimit="10" stroke-width="1"/>
      </g>
    </g>
    <g id="Group_9564" data-name="Group 9564" transform="translate(80.655 80.704)">
      <g id="Group_9563" data-name="Group 9563">
        <path id="Path_13943" data-name="Path 13943" d="M122,214.9v2.644h2.644" transform="translate(-122 -153.483)" fill="none" stroke="#000" stroke-linecap="round" stroke-linejoin="round" stroke-width="1"/>
        <line id="Line_489" data-name="Line 489" x2="47.996" transform="translate(9.85 64.061)" stroke-dasharray="8.675 10.843" stroke="#000" stroke-linecap="round" stroke-linejoin="round" stroke-width="1" fill="none"/>
        <path id="Path_13944" data-name="Path 13944" d="M214.9,217.544h2.644V214.9" transform="translate(-153.483 -153.483)" fill="none" stroke="#000" stroke-linecap="round" stroke-linejoin="round" stroke-width="1"/>
        <line id="Line_490" data-name="Line 490" y1="48.062" transform="translate(64.061 6.214)" stroke-dasharray="8.675 10.843" stroke="#000" stroke-linecap="round" stroke-linejoin="round" stroke-width="1" fill="none"/>
        <path id="Path_13945" data-name="Path 13945" d="M217.544,124.644V122H214.9" transform="translate(-153.483 -122)" fill="none" stroke="#000" stroke-linecap="round" stroke-linejoin="round" stroke-width="1"/>
        <line id="Line_491" data-name="Line 491" x1="48.062" transform="translate(6.214)" stroke-dasharray="8.675 10.843" stroke="#000" stroke-linecap="round" stroke-linejoin="round" stroke-width="1" fill="none"/>
        <path id="Path_13946" data-name="Path 13946" d="M124.644,122H122v2.644" transform="translate(-122 -122)" fill="none" stroke="#000" stroke-linecap="round" stroke-linejoin="round" stroke-width="1"/>
        <line id="Line_492" data-name="Line 492" y2="47.996" transform="translate(0 9.85)" stroke-dasharray="8.675 10.843" stroke="#000" stroke-linecap="round" stroke-linejoin="round" stroke-width="1" fill="none"/>
      </g>
    </g>
    <g id="Group_9566" data-name="Group 9566" transform="translate(80.655 80.704)">
      <g id="Group_9565" data-name="Group 9565">
        <path id="Path_13947" data-name="Path 13947" d="M122,213.9v3.306h3.306" transform="translate(-122 -153.145)" fill="none" stroke="#000" stroke-linecap="round" stroke-linejoin="round" stroke-width="1"/>
        <line id="Line_493" data-name="Line 493" x2="47.864" transform="translate(9.718 64.061)" stroke-dasharray="9.657 9.657" stroke="#000" stroke-linecap="round" stroke-linejoin="round" stroke-width="1" fill="none"/>
        <path id="Path_13948" data-name="Path 13948" d="M213.9,217.206h3.306V213.9" transform="translate(-153.145 -153.145)" fill="none" stroke="#000" stroke-linecap="round" stroke-linejoin="round" stroke-width="1"/>
        <line id="Line_494" data-name="Line 494" y1="47.93" transform="translate(64.061 6.479)" stroke-dasharray="9.657 9.657" stroke="#000" stroke-linecap="round" stroke-linejoin="round" stroke-width="1" fill="none"/>
        <path id="Path_13949" data-name="Path 13949" d="M217.205,125.306V122H213.9" transform="translate(-153.145 -122)" fill="none" stroke="#000" stroke-linecap="round" stroke-linejoin="round" stroke-width="1"/>
        <line id="Line_495" data-name="Line 495" x1="47.93" transform="translate(6.479)" stroke-dasharray="9.657 9.657" stroke="#000" stroke-linecap="round" stroke-linejoin="round" stroke-width="1" fill="none"/>
        <path id="Path_13950" data-name="Path 13950" d="M125.306,122H122v3.306" transform="translate(-122 -122)" fill="none" stroke="#000" stroke-linecap="round" stroke-linejoin="round" stroke-width="1"/>
        <line id="Line_496" data-name="Line 496" y2="47.864" transform="translate(0 9.718)" stroke-dasharray="9.657 9.657" stroke="#000" stroke-linecap="round" stroke-linejoin="round" stroke-width="1" fill="none"/>
      </g>
    </g>
    <rect id="Rectangle_980" data-name="Rectangle 980" width="25.188" height="25.188" transform="translate(119.528 119.577)" stroke-width="1" stroke="#000" stroke-linecap="round" stroke-linejoin="round" stroke-miterlimit="10" fill="#bde3f7"/>
    <path id="Path_13951" data-name="Path 13951" d="M226.478,121.544V107H212" transform="translate(-71.846 -36.212)" fill="#fff" stroke="#000" stroke-linecap="round" stroke-linejoin="round" stroke-miterlimit="10" stroke-width="1"/>
    <path id="Path_13952" data-name="Path 13952" d="M212,226.478h14.478V212" transform="translate(-71.846 -71.796)" fill="#fff" stroke="#000" stroke-linecap="round" stroke-linejoin="round" stroke-miterlimit="10" stroke-width="1"/>
    <g id="Group_9571" data-name="Group 9571" transform="translate(45.616 0)">
      <g id="Group_9567" data-name="Group 9567" transform="translate(0 42.228)">
        <ellipse id="Ellipse_291" data-name="Ellipse 291" cx="8.264" cy="8.264" rx="8.264" ry="8.264" stroke-width="1" stroke="#000" stroke-linecap="round" stroke-linejoin="round" stroke-miterlimit="10" fill="#a5d99f"/>
        <path id="Path_13953" data-name="Path 13953" d="M79.873,77.847A3.174,3.174,0,0,1,76.7,74.673a3.173,3.173,0,1,1,3.173,3.173Z" transform="translate(-71.609 -66.41)" fill="#a9d4a4" stroke="#000" stroke-linecap="round" stroke-linejoin="round" stroke-miterlimit="10" stroke-width="1"/>
      </g>
      <g id="Group_9568" data-name="Group 9568" transform="translate(5.355 13.801)">
        <line id="Line_497" data-name="Line 497" y1="35.501" x2="16.065" stroke-width="1" stroke="#000" stroke-linecap="round" stroke-linejoin="round" stroke-miterlimit="10" fill="none"/>
        <line id="Line_498" data-name="Line 498" x2="54.409" y2="6.148" transform="translate(2.909 39.865)" fill="none" stroke="#000" stroke-linecap="round" stroke-linejoin="round" stroke-miterlimit="10" stroke-width="1"/>
      </g>
      <line id="Line_499" data-name="Line 499" x2="38.939" y2="29.882" transform="translate(27.965 12.346)" fill="none" stroke="#000" stroke-linecap="round" stroke-linejoin="round" stroke-miterlimit="10" stroke-width="1"/>
      <g id="Group_9569" data-name="Group 9569" transform="translate(37.724 25.345)">
        <path id="Path_13954" data-name="Path 13954" d="M176.2,61.558l-1.454-6.942a1.388,1.388,0,0,0-1.521-1.124l-6.743.727a1.486,1.486,0,0,1-1.322-.595h0a1.61,1.61,0,0,1-.132-1.454l3.041-6.082a1.4,1.4,0,0,0-.529-1.851l-5.95-3.834a1.366,1.366,0,0,0-1.851.331l-4.231,5.289a1.5,1.5,0,0,1-1.322.529h0a1.281,1.281,0,0,1-1.058-.926l-2.116-6.413a1.436,1.436,0,0,0-1.653-.926l-6.942,1.521a1.388,1.388,0,0,0-1.124,1.521l.727,6.743a1.486,1.486,0,0,1-.595,1.322h0a1.61,1.61,0,0,1-1.454.132l-6.082-3.041a1.4,1.4,0,0,0-1.851.529l-3.834,5.95a1.366,1.366,0,0,0,.331,1.851l5.289,4.231a1.5,1.5,0,0,1,.529,1.322h0a1.281,1.281,0,0,1-.926,1.058l-6.413,2.116a1.436,1.436,0,0,0-.926,1.653l1.521,6.942a1.388,1.388,0,0,0,1.521,1.124l6.743-.727a1.486,1.486,0,0,1,1.322.595h0a1.61,1.61,0,0,1,.132,1.454l-3.041,6.082a1.4,1.4,0,0,0,.529,1.851l5.95,3.834a1.366,1.366,0,0,0,1.851-.331l4.231-5.289a1.5,1.5,0,0,1,1.322-.529h0a1.281,1.281,0,0,1,1.058.926l2.116,6.413a1.436,1.436,0,0,0,1.653.926l6.942-1.521a1.388,1.388,0,0,0,1.124-1.521l-.727-6.743a1.486,1.486,0,0,1,.595-1.322h0a1.61,1.61,0,0,1,1.454-.132l6.082,3.041a1.4,1.4,0,0,0,1.851-.529l3.834-5.95a1.366,1.366,0,0,0-.331-1.851l-5.289-4.231A1.5,1.5,0,0,1,168,66.384h0a1.281,1.281,0,0,1,.926-1.058l6.413-2.116A1.337,1.337,0,0,0,176.2,61.558Z" transform="translate(-126.062 -38.262)" fill="#fff" stroke="#000" stroke-linecap="round" stroke-linejoin="round" stroke-miterlimit="10" stroke-width="1"/>
        <ellipse id="Ellipse_292" data-name="Ellipse 292" cx="9.255" cy="9.255" rx="9.255" ry="9.255" transform="translate(15.693 15.892)" fill="#fff" stroke="#000" stroke-linecap="round" stroke-linejoin="round" stroke-miterlimit="10" stroke-width="1"/>
      </g>
      <g id="Group_9570" data-name="Group 9570" transform="translate(10.065)">
        <path id="Path_13955" data-name="Path 13955" d="M110.388,6.85l-1.124,2.38a2.184,2.184,0,0,0,1.256,2.975l2.446.859a2.133,2.133,0,0,1,0,4.033l-2.446.859a2.192,2.192,0,0,0-1.256,2.975l1.124,2.38a2.124,2.124,0,0,1-2.843,2.843l-2.38-1.124a2.184,2.184,0,0,0-2.975,1.256l-.859,2.446a2.133,2.133,0,0,1-4.033,0l-.859-2.446a2.192,2.192,0,0,0-2.975-1.256l-2.38,1.124a2.124,2.124,0,0,1-2.843-2.843l1.124-2.38a2.184,2.184,0,0,0-1.256-2.975L85.663,17.1a2.133,2.133,0,0,1,0-4.033l2.446-.859A2.192,2.192,0,0,0,89.365,9.23L88.241,6.85a2.157,2.157,0,0,1,2.843-2.909l2.38,1.124a2.184,2.184,0,0,0,2.975-1.256L97.3,1.363a2.133,2.133,0,0,1,4.033,0l.859,2.446a2.192,2.192,0,0,0,2.975,1.256l2.38-1.124A2.149,2.149,0,0,1,110.388,6.85Z" transform="translate(-84.225 0.075)" fill="#fff" stroke="#000" stroke-linecap="round" stroke-linejoin="round" stroke-miterlimit="10" stroke-width="1"/>
        <ellipse id="Ellipse_293" data-name="Ellipse 293" cx="3.967" cy="3.967" rx="3.967" ry="3.967" transform="translate(11.156 11.156)" fill="#fff" stroke="#000" stroke-linecap="round" stroke-linejoin="round" stroke-miterlimit="10" stroke-width="1"/>
      </g>
    </g>
  </g>
</svg>
