<svg xmlns="http://www.w3.org/2000/svg" width="170.243" height="136.063" viewBox="0 0 170.243 136.063">
  <g id="WeProfit_Icon_design-01" transform="translate(0.5 0.5)">
    <g id="Group_9504" data-name="Group 9504" transform="translate(0 31.535)">
      <path id="Path_13854" data-name="Path 13854" d="M163.346,165.163H18.3V71.022A1.326,1.326,0,0,1,19.622,69.7H162.09a1.326,1.326,0,0,1,1.322,1.322v94.141Z" transform="translate(-6.202 -69.7)" fill="#cbced1" stroke="#000" stroke-linecap="round" stroke-linejoin="round" stroke-miterlimit="10" stroke-width="1"/>
      <path id="Path_13855" data-name="Path 13855" d="M28.3,161.941V81.022A1.326,1.326,0,0,1,29.622,79.7H158.868a1.326,1.326,0,0,1,1.322,1.322v80.919Z" transform="translate(-9.591 -73.089)" fill="#fff" stroke="#000" stroke-linecap="round" stroke-linejoin="round" stroke-miterlimit="10" stroke-width="1"/>
      <path id="Path_13856" data-name="Path 13856" d="M161.177,222.165H8.065A8.1,8.1,0,0,1,0,214.1H169.243A8.1,8.1,0,0,1,161.177,222.165Z" transform="translate(0 -118.637)" fill="#cbced1" stroke="#000" stroke-linecap="round" stroke-linejoin="round" stroke-miterlimit="10" stroke-width="1"/>
    </g>
    <path id="Path_13857" data-name="Path 13857" d="M117.919,112.841h-79.6A1.326,1.326,0,0,1,37,111.519v-79.6A1.326,1.326,0,0,1,38.322,30.6h79.6a1.326,1.326,0,0,1,1.322,1.322v79.6A1.326,1.326,0,0,1,117.919,112.841Z" transform="translate(-12.539 -24.914)" stroke="#000" stroke-miterlimit="10" stroke-width="1"/>
    <path id="Path_13858" data-name="Path 13858" d="M127.019,104.241h-79.6a1.326,1.326,0,0,1-1.322-1.322v-79.6A1.326,1.326,0,0,1,47.422,22h79.6a1.326,1.326,0,0,1,1.322,1.322v79.6A1.326,1.326,0,0,1,127.019,104.241Z" transform="translate(-15.623 -22)" fill="#fff" stroke="#000" stroke-linecap="round" stroke-linejoin="round" stroke-miterlimit="10" stroke-width="1"/>
    <line id="Line_441" data-name="Line 441" x2="82.241" transform="translate(30.477 8.991)" fill="none" stroke="#000" stroke-linecap="round" stroke-linejoin="round" stroke-miterlimit="10" stroke-width="1"/>
    <g id="Group_9509" data-name="Group 9509" transform="translate(46.277 29.022)">
      <g id="Group_9508" data-name="Group 9508">
        <g id="Group_9505" data-name="Group 9505">
          <path id="Path_13859" data-name="Path 13859" d="M70,65.9c5.091,0,5.091,2.644,10.115,2.644,5.091,0,5.091-2.644,10.115-2.644,5.09,0,5.09,2.644,10.115,2.644,5.091,0,5.091-2.644,10.115-2.644s5.09,2.644,10.115,2.644" transform="translate(-70 -65.9)" fill="none" stroke="#000" stroke-linecap="round" stroke-linejoin="round" stroke-miterlimit="10" stroke-width="1"/>
        </g>
        <g id="Group_9506" data-name="Group 9506" transform="translate(0 14.743)">
          <path id="Path_13860" data-name="Path 13860" d="M70,88.2c5.091,0,5.091,2.644,10.115,2.644,5.091,0,5.091-2.644,10.115-2.644,5.09,0,5.09,2.644,10.115,2.644,5.091,0,5.091-2.644,10.115-2.644s5.09,2.644,10.115,2.644" transform="translate(-70 -88.2)" fill="none" stroke="#000" stroke-linecap="round" stroke-linejoin="round" stroke-miterlimit="10" stroke-width="1"/>
        </g>
        <g id="Group_9507" data-name="Group 9507" transform="translate(0 29.485)">
          <path id="Path_13861" data-name="Path 13861" d="M70,110.5c5.091,0,5.091,2.644,10.115,2.644,5.091,0,5.091-2.644,10.115-2.644,5.09,0,5.09,2.644,10.115,2.644,5.091,0,5.091-2.644,10.115-2.644s5.09,2.644,10.115,2.644" transform="translate(-70 -110.5)" fill="none" stroke="#000" stroke-linecap="round" stroke-linejoin="round" stroke-miterlimit="10" stroke-width="1"/>
        </g>
      </g>
    </g>
    <path id="Path_13862" data-name="Path 13862" d="M154.732,159.105a22.392,22.392,0,1,0,3.7-34.642l-10.247-3.5,3.5,10.247A22.362,22.362,0,0,0,154.732,159.105Z" transform="translate(-50.212 -55.51)" fill="#a5d99f" stroke="#000" stroke-linecap="round" stroke-linejoin="round" stroke-miterlimit="10" stroke-width="1"/>
    <g id="Group_9510" data-name="Group 9510" transform="translate(117.544 72.325)">
      <path id="Path_13863" data-name="Path 13863" d="M180.577,166.644h0a2.793,2.793,0,0,1-2.777-2.777v-16.99a2.793,2.793,0,0,1,2.777-2.777h0a2.793,2.793,0,0,1,2.777,2.777v16.99A2.751,2.751,0,0,1,180.577,166.644Z" transform="translate(-177.8 -135.704)" fill="#fff" stroke="#000" stroke-linecap="round" stroke-linejoin="round" stroke-miterlimit="10" stroke-width="1"/>
      <path id="Path_13864" data-name="Path 13864" d="M180.577,131.4h0a2.793,2.793,0,0,1,2.777,2.777h0a2.793,2.793,0,0,1-2.777,2.777h0a2.793,2.793,0,0,1-2.777-2.777h0A2.793,2.793,0,0,1,180.577,131.4Z" transform="translate(-177.8 -131.4)" fill="#fff" stroke="#000" stroke-linecap="round" stroke-linejoin="round" stroke-miterlimit="10" stroke-width="1"/>
    </g>
    <g id="Group_9511" data-name="Group 9511" transform="translate(36.361 2.711)">
      <line id="Line_442" data-name="Line 442" x2="3.768" y2="3.702" stroke-width="1" stroke="#000" stroke-linecap="round" stroke-linejoin="round" stroke-miterlimit="10" fill="none"/>
      <line id="Line_443" data-name="Line 443" y1="3.702" x2="3.768" stroke-width="1" stroke="#000" stroke-linecap="round" stroke-linejoin="round" stroke-miterlimit="10" fill="none"/>
    </g>
  </g>
</svg>
